<?xml version="1.0" encoding="UTF-8"?>
<svg width="134px" height="45px" viewBox="0 0 134 45" version="1.1" xmlns="http://www.w3.org/2000/svg" xmlns:xlink="http://www.w3.org/1999/xlink">
    <title>27C17F8C-4561-4222-9155-924006C58CEF</title>
    <g id="Page-1" stroke="none" stroke-width="1" fill="none" fill-rule="evenodd">
        <g id="Home-Hotels" transform="translate(-296.000000, -5323.000000)">
            <g id="footer" transform="translate(0.000000, 4312.000000)">
                <g id="black" transform="translate(0.000000, 703.000000)">
                    <g id="Availible-in" transform="translate(143.000000, 308.000000)">
                        <g id="App-Store-Copy" transform="translate(153.000000, 0.000000)">
                            <rect id="background" fill="#000000" x="0" y="0" width="134" height="45" rx="7"></rect>
                            <g id="icon" transform="translate(11.179639, 7.920000)" fill="#FFFFFF">
                                <path d="M18.1552717,13.5498807 C18.1260757,10.3309972 20.8121162,8.76499992 20.9349412,8.69209316 C19.413724,6.49190691 17.0558878,6.19129136 16.2273228,6.16732201 C14.2470223,5.9605864 12.3261207,7.34281871 11.3173454,7.34281871 C10.2884348,7.34281871 8.73500128,6.18729647 7.06075635,6.22125304 C4.90628602,6.25421089 2.89074883,7.4916284 1.78532434,9.413171 C-0.495997973,13.3311604 1.20542953,19.0887971 3.39110947,22.255747 C4.48445282,23.8077622 5.76203358,25.5385488 7.43426499,25.4776267 C9.07025297,25.411711 9.6813574,24.4429499 11.6556174,24.4429499 C13.6117556,24.4429499 14.1856098,25.4776267 15.8910644,25.4376778 C17.646857,25.411711 18.7522815,23.880669 19.8073679,22.3146717 C21.070854,20.5389426 21.578262,18.7861841 21.5983972,18.6962991 C21.5581267,18.6833157 18.1895017,17.4079467 18.1552717,13.5498807" id="Fill-2"></path>
                                <path d="M14.9336339,4.08398633 C15.8135437,2.99238234 16.4155873,1.50728159 16.2484648,0.000208940646 C14.9749111,0.0561374155 13.3822139,0.87409136 12.4650539,1.941726 C11.6536038,2.88252284 10.9287353,4.42455079 11.115993,5.87469624 C12.5466016,5.98056086 14.0154671,5.15861202 14.9336339,4.08398633" id="Fill-3"></path>
                            </g>
                            <g id="App-Store" transform="translate(41.027980, 19.006875)" fill="#FFFFFF">
                                <path d="M12.0030838,14.1680365 L9.71672766,14.1680365 L8.46431594,10.2640292 L4.11107777,10.2640292 L2.918065,14.1680365 L0.692114589,14.1680365 L5.00608904,0.877033941 L7.66998086,0.877033941 L12.0030838,14.1680365 L12.0030838,14.1680365 Z M8.08678025,8.62612387 L6.95417319,5.15656099 C6.83436853,4.80101568 6.60885388,3.96608345 6.278636,2.65176429 L6.23836553,2.65176429 C6.10547297,3.21704138 5.89304622,4.05197361 5.60209205,5.15656099 L4.48861346,8.62612387 L8.08678025,8.62612387 L8.08678025,8.62612387 Z" id="Fill-4"></path>
                                <path d="M23.0754504,9.25831538 C23.0754504,10.8882309 22.6294549,12.1765833 21.7364572,13.1223738 C20.9370883,13.9642971 19.9434144,14.3847593 18.7584557,14.3847593 C17.4788614,14.3847593 16.5586811,13.9323379 15.9999283,13.0244989 L15.9999283,18.0530681 L13.853512,18.0530681 L13.853512,7.73426444 C13.853512,6.71057361 13.8263295,5.66091598 13.7739779,4.58429284 L15.6616563,4.58429284 L15.7814609,6.10434889 L15.8217314,6.10434889 C16.5375391,4.95881388 17.6238351,4.38654574 19.0816262,4.38654574 C20.2212806,4.38654574 21.1726706,4.83297481 21.9337825,5.72683169 C22.6938877,6.62268601 23.0754504,7.79918142 23.0754504,9.25831538 L23.0754504,9.25831538 Z M20.8887637,9.33621576 C20.8887637,8.4034087 20.6773437,7.63439217 20.2524902,7.02916617 C19.788373,6.39897211 19.1651875,6.08237699 18.3839403,6.08237699 C17.8543836,6.08237699 17.3731514,6.2581522 16.9432641,6.60570772 C16.51237,6.95426196 16.2304767,7.41067827 16.0985909,7.97695408 C16.0321446,8.23961816 15.9989215,8.45434356 15.9989215,8.62412643 L15.9989215,10.2240803 C15.9989215,10.9191913 16.2143685,11.507439 16.6452626,11.9888234 C17.0761567,12.4682103 17.6359162,12.7089025 18.3245413,12.7089025 C19.1329711,12.7089025 19.7621972,12.3982998 20.2122198,11.7820878 C20.6632491,11.1638784 20.8887637,10.3489206 20.8887637,9.33621576 L20.8887637,9.33621576 Z" id="Fill-5"></path>
                                <path d="M34.1870808,9.25831538 C34.1870808,10.8882309 33.7410853,12.1765833 32.8480875,13.1223738 C32.0477119,13.9642971 31.0550447,14.3847593 29.8690793,14.3847593 C28.5904917,14.3847593 27.6703114,13.9323379 27.1105519,13.0244989 L27.1105519,18.0530681 L24.9641356,18.0530681 L24.9641356,7.73426444 C24.9641356,6.71057361 24.9369531,5.66091598 24.8846014,4.58429284 L26.7722799,4.58429284 L26.8920845,6.10434889 L26.932355,6.10434889 C27.6471559,4.95881388 28.7334519,4.38654574 30.1922498,4.38654574 C31.3308975,4.38654574 32.2832942,4.83297481 33.0454129,5.72683169 C33.8045113,6.62268601 34.1870808,7.79918142 34.1870808,9.25831538 L34.1870808,9.25831538 Z M31.9993873,9.33621576 C31.9993873,8.4034087 31.7869606,7.63439217 31.3621071,7.02916617 C30.8989966,6.39897211 30.2768178,6.08237699 29.4955706,6.08237699 C28.9660139,6.08237699 28.4847818,6.2581522 28.0528809,6.60570772 C27.6229936,6.95426196 27.3411003,7.41067827 27.2092145,7.97695408 C27.143775,8.23961816 27.1085383,8.45434356 27.1085383,8.62412643 L27.1085383,10.2240803 C27.1085383,10.9191913 27.3249921,11.507439 27.7538727,11.9888234 C28.1847667,12.4672116 28.7445263,12.7089025 29.4351649,12.7089025 C30.2446014,12.7089025 30.8738276,12.3982998 31.3228434,11.7820878 C31.7738727,11.1638784 31.9993873,10.3489206 31.9993873,9.33621576 L31.9993873,9.33621576 Z" id="Fill-6"></path>
                                <path d="M46.6105218,10.4408031 C46.6105218,11.5713573 46.2128509,12.491181 45.4195226,13.2012729 C44.5476668,13.9762817 43.3304917,14.3647849 41.7700109,14.3647849 C40.328328,14.3647849 39.1725654,14.0891374 38.3007096,13.5368437 L38.7970432,11.7621134 C39.7383655,12.314407 40.7723099,12.5910532 41.8978697,12.5910532 C42.7073062,12.5910532 43.3365323,12.4092857 43.7855481,12.0487468 C44.2365774,11.6862104 44.4630988,11.2038273 44.4630988,10.6005988 C44.4630988,10.0602898 44.2758411,9.60686963 43.9053528,9.23834093 C43.5338576,8.87180967 42.9197329,8.52824904 42.0579448,8.21465009 C39.7121897,7.34676001 38.5383054,6.07638465 38.5383054,4.40751891 C38.5383054,3.31691366 38.9530913,2.4240555 39.7796428,1.72594829 C40.607201,1.0288398 41.7045714,0.680285556 43.0697404,0.680285556 C44.288929,0.680285556 45.3047517,0.891016059 46.1111679,1.31147834 L45.5725504,3.04725851 C44.8134519,2.63977962 43.9566976,2.43604018 42.9982603,2.43604018 C42.2411754,2.43604018 41.6461792,2.62080389 41.2223325,2.98833387 C40.864932,3.31691366 40.6827081,3.71740148 40.6827081,4.19279352 C40.6827081,4.71712297 40.8890943,5.1525661 41.3008599,5.49313056 C41.6572536,5.80872695 42.3076217,6.15128886 43.2479373,6.51881884 C44.4016863,6.98022876 45.248373,7.5175416 45.7920244,8.13475227 C46.3386961,8.75196294 46.6105218,9.52197819 46.6105218,10.4408031" id="Fill-7"></path>
                                <path d="M53.7253077,6.18224927 L51.3594174,6.18224927 L51.3594174,10.8352986 C51.3594174,12.0187851 51.7762168,12.6090303 52.6118291,12.6090303 C52.9954053,12.6090303 53.3135421,12.5770711 53.5652325,12.5101567 L53.6246315,14.1270889 C53.2017915,14.2838883 52.6450522,14.3627874 51.9564271,14.3627874 C51.1077269,14.3627874 50.4462844,14.105117 49.9670658,13.5927722 C49.4898606,13.0794287 49.2512581,12.2195284 49.2512581,11.0090764 L49.2512581,6.17825438 L47.8427983,6.17825438 L47.8427983,4.58029795 L49.2512581,4.58029795 L49.2512581,2.82554205 L51.3594174,2.19434927 L51.3594174,4.58029795 L53.7253077,4.58029795 L53.7253077,6.18224927" id="Fill-8"></path>
                                <path d="M64.3788614,9.29726557 C64.3788614,10.7703816 63.9550147,11.9798349 63.1063144,12.9256254 C62.2193573,13.8983813 61.0394324,14.3847593 59.5685534,14.3847593 C58.1490192,14.3847593 57.0204392,13.9183558 56.1787863,12.9855487 C55.3371334,12.0527417 54.9163069,10.8762463 54.9163069,9.45706121 C54.9163069,7.97196046 55.3522348,6.75551613 56.21805,5.80972568 C57.0858787,4.86393522 58.2557359,4.3895419 59.726615,4.3895419 C61.1451424,4.3895419 62.2827833,4.85794288 63.1455782,5.78975122 C63.9691093,6.69559277 64.3788614,7.86309968 64.3788614,9.29726557 L64.3788614,9.29726557 Z M62.1539177,9.34620299 C62.1539177,8.46832568 61.962633,7.71528871 61.5790567,7.08509465 C61.1290342,6.3240679 60.4836999,5.94455325 59.6501011,5.94455325 C58.7913332,5.94455325 58.1298907,6.3240679 57.6818817,7.08509465 C57.2962919,7.71528871 57.1060139,8.48130907 57.1060139,9.3861519 C57.1060139,10.2650279 57.2962919,11.0200623 57.6818817,11.6472602 C58.1459989,12.4092857 58.7933467,12.7897991 59.6329861,12.7897991 C60.4524902,12.7897991 61.0958111,12.4002972 61.5619418,11.6292832 C61.9555857,10.9841083 62.1539177,10.2260777 62.1539177,9.34620299 L62.1539177,9.34620299 Z" id="Fill-9"></path>
                                <path d="M71.3587412,6.45689803 C71.1463144,6.41794784 70.9187863,6.39897211 70.6821972,6.39897211 C69.9271259,6.39897211 69.343204,6.6796132 68.9324452,7.24688773 C68.5750447,7.74624912 68.3968479,8.3774419 68.3968479,9.13946737 L68.3968479,14.1680365 L66.2504316,14.1680365 L66.2504316,7.60243304 C66.2504316,6.49884438 66.2292896,5.49113311 66.1880124,4.58529157 L68.0575691,4.58529157 L68.1360966,6.41894656 L68.1954955,6.41894656 C68.4230237,5.7887525 68.7794174,5.28040261 69.2687036,4.90088796 C69.7479223,4.55732733 70.2633843,4.38654574 70.8201236,4.38654574 C71.0184557,4.38654574 71.1976593,4.40152658 71.3567277,4.42549592 L71.3587412,6.45689803" id="Fill-10"></path>
                                <path d="M80.9582153,8.92274453 C80.9582153,9.30425663 80.9330462,9.62584536 80.8796878,9.88850945 L74.4414459,9.88850945 C74.4646014,10.8352986 74.7777044,11.5603714 75.3747141,12.0597327 C75.9173588,12.5051631 76.6200785,12.728877 77.4808599,12.728877 C78.4342633,12.728877 79.3041056,12.5790686 80.0863595,12.2754569 L80.422618,13.7535665 C79.5084782,14.148062 78.4282228,14.3458091 77.1838652,14.3458091 C75.6858035,14.3458091 74.5099057,13.9083686 73.6541582,13.0354849 C72.8014309,12.1616025 72.3725504,10.9861058 72.3725504,9.51598586 C72.3725504,8.07183274 72.7692145,6.86837181 73.5665699,5.90859923 C74.4001687,4.88390967 75.5267352,4.37156489 76.9442558,4.37156489 C78.3366075,4.37156489 79.3906871,4.88390967 80.105488,5.90859923 C80.6733017,6.72056084 80.9582153,7.72727338 80.9582153,8.92274453 L80.9582153,8.92274453 Z M78.9114685,8.37045085 C78.9265699,7.73825934 78.7856232,7.19495415 78.4946691,6.73354423 C78.1231739,6.14030291 77.5513332,5.84468097 76.7851875,5.84468097 C76.0824677,5.84468097 75.5116337,6.13331185 75.0767126,6.71257106 C74.7193122,7.17298225 74.5068854,7.72727338 74.4414459,8.3684534 L78.9114685,8.37045085 L78.9114685,8.37045085 Z" id="Fill-11"></path>
                            </g>
                            <g id="Available-on-the" transform="translate(41.844500, 7.576875)" fill="#FFFFFF">
                                <path d="M6.23530912,7.55011741 L5.11075615,7.55011741 L4.49562467,5.63157098 L2.35625577,5.63157098 L1.76931362,7.55011741 L0.674963512,7.55011741 L2.79520393,1.01747181 L4.10399432,1.01747181 L6.23530912,7.55011741 L6.23530912,7.55011741 Z M4.31038049,4.82660043 L3.7536412,3.12078195 C3.69524901,2.94600547 3.5875255,2.5395253 3.42140979,1.8903555 L3.40127456,1.8903555 C3.33281475,2.1709966 3.23515885,2.57847549 3.08817163,3.12078195 L2.54149995,4.82660043 L4.31038049,4.82660043 L4.31038049,4.82660043 Z" id="Fill-12"></path>
                                <path d="M11.5369169,2.84014085 L9.7388403,7.55011741 L8.71294999,7.55011741 L6.97326554,2.84014085 L8.10687936,2.84014085 L8.9183294,5.33095543 C9.05524901,5.74742282 9.17203338,6.14491448 9.25962166,6.52243169 L9.28881776,6.52243169 C9.36734518,6.18386467 9.48412955,5.78637301 9.63011002,5.33095543 L10.4314924,2.84014085 L11.5369169,2.84014085" id="Fill-13"></path>
                                <path d="M15.3646254,7.55011741 L15.286098,7.00781095 L15.2569019,7.00781095 C14.9347381,7.4442528 14.4655871,7.65698075 13.8695841,7.65698075 C13.0198771,7.65698075 12.4138065,7.06573687 12.4138065,6.27075355 C12.4138065,5.10824025 13.4296292,4.50700915 15.1884421,4.50700915 L15.1884421,4.42012027 C15.1884421,3.79991343 14.8562107,3.48931065 14.2018155,3.48931065 C13.7326645,3.48931065 13.3219057,3.60616121 12.9614849,3.83886362 L12.7470447,3.15074363 C13.1869996,2.87909104 13.7336713,2.74326474 14.3790056,2.74326474 C15.6193362,2.74326474 16.245542,3.39243454 16.245542,4.69177286 L16.245542,6.4265543 C16.245542,6.90194634 16.2656773,7.27047504 16.3140018,7.55111613 L15.3646254,7.55011741 L15.3646254,7.55011741 Z M15.2176382,5.20411764 C14.0447607,5.20411764 13.4588253,5.48575746 13.4588253,6.15390299 C13.4588253,6.64827076 13.7618606,6.88996166 14.1816803,6.88996166 C14.7192911,6.88996166 15.2176382,6.4834815 15.2176382,5.93118781 L15.2176382,5.20411764 L15.2176382,5.20411764 Z" id="Fill-14"></path>
                                <path d="M18.5953241,2.06413326 C18.2439643,2.06413326 17.970125,1.79248067 17.970125,1.4339392 C17.970125,1.07539773 18.2530251,0.813732363 18.6154594,0.813732363 C18.9768869,0.813732363 19.2698546,1.07539773 19.259787,1.4339392 C19.259787,1.81245513 18.9869545,2.06413326 18.5953241,2.06413326 L18.5953241,2.06413326 Z M18.0879162,2.84014085 L19.1430026,2.84014085 L19.1430026,7.55011741 L18.0879162,7.55011741 L18.0879162,2.84014085 Z" id="Fill-15"></path>
                                <polygon id="Fill-16" points="21.0175931 0.67890479 22.0726795 0.67890479 22.0726795 7.55011741 21.0175931 7.55011741"></polygon>
                                <path d="M26.5567967,7.55011741 L26.4772625,7.00781095 L26.4490732,7.00781095 C26.1269094,7.4442528 25.6577584,7.65698075 25.0617554,7.65698075 C24.2120484,7.65698075 23.6059778,7.06573687 23.6059778,6.27075355 C23.6059778,5.10824025 24.6218005,4.50700915 26.3806134,4.50700915 L26.3806134,4.42012027 C26.3806134,3.79991343 26.048382,3.48931065 25.3939868,3.48931065 C24.9248358,3.48931065 24.514077,3.60616121 24.1536562,3.83886362 L23.9382092,3.14974491 C24.3781641,2.87809232 24.9248358,2.74226602 25.5701701,2.74226602 C26.8105007,2.74226602 27.4377133,3.39143582 27.4377133,4.69077414 L27.4377133,6.42555558 C27.4377133,6.90094761 27.4578486,7.26947631 27.5041596,7.55011741 L26.5567967,7.55011741 L26.5567967,7.55011741 Z M26.4098095,5.20411764 C25.236932,5.20411764 24.6509966,5.48575746 24.6509966,6.15390299 C24.6509966,6.64827076 24.9540319,6.88996166 25.3738516,6.88996166 C25.9114624,6.88996166 26.4098095,6.4834815 26.4098095,5.93118781 L26.4098095,5.20411764 L26.4098095,5.20411764 Z" id="Fill-17"></path>
                                <path d="M31.7114173,7.65698075 C31.0378936,7.65698075 30.5405533,7.37534093 30.2173827,6.82304724 L30.1972475,6.82304724 L30.1368418,7.55011741 L29.2388102,7.55011741 C29.2669996,7.17260021 29.2770672,6.74514686 29.2770672,6.28074078 L29.2770672,0.67890479 L30.3341671,0.67890479 L30.3341671,3.52925956 L30.3532956,3.52925956 C30.6663985,3.00592883 31.1738065,2.74426347 31.8674654,2.74426347 C33.0111468,2.74426347 33.8125293,3.71402327 33.8125293,5.12821471 C33.8125293,6.59034483 32.9225518,7.65698075 31.7114173,7.65698075 L31.7114173,7.65698075 Z M31.496977,3.5662123 C30.8898997,3.5662123 30.3341671,4.08954303 30.3341671,4.8166132 L30.3341671,5.64055949 C30.3341671,6.28972928 30.833521,6.82304724 31.4778486,6.82304724 C32.2681566,6.82304724 32.7393211,6.18386467 32.7393211,5.16616617 C32.7383144,4.21638082 32.2490281,3.5662123 31.496977,3.5662123 L31.496977,3.5662123 Z" id="Fill-18"></path>
                                <polygon id="Fill-19" points="35.3740169 0.67890479 36.4280965 0.67890479 36.4280965 7.55011741 35.3740169 7.55011741"></polygon>
                                <path d="M42.170666,5.44680727 L39.0033933,5.44680727 C39.0245353,6.3386667 39.6185247,6.84202297 40.4974278,6.84202297 C40.9675856,6.84202297 41.3974729,6.7641226 41.7780289,6.61930779 L41.9421311,7.34637797 C41.4931153,7.54013018 40.9655721,7.63700629 40.3504406,7.63700629 C38.8644601,7.63700629 37.9855571,6.70619668 37.9855571,5.26304228 C37.9855571,3.81888916 38.8856021,2.73327752 40.2326495,2.73327752 C41.4427772,2.73327752 42.2069094,3.62513695 42.2069094,4.97241396 C42.2099297,5.15617894 42.2008688,5.3209682 42.170666,5.44680727 L42.170666,5.44680727 Z M41.2041746,4.70076136 C41.2041746,3.97369119 40.8316728,3.46034769 40.1571423,3.46034769 C39.5510717,3.46034769 39.0738666,3.98367842 39.0033933,4.70076136 L41.2041746,4.70076136 L41.2041746,4.70076136 Z" id="Fill-20"></path>
                                <path d="M48.5656172,7.65698075 C47.1782993,7.65698075 46.279261,6.62929502 46.279261,5.23407932 C46.279261,3.77993897 47.1974278,2.74326474 48.6451513,2.74326474 C50.0113271,2.74326474 50.9315075,3.72201305 50.9315075,5.15717767 C50.9315075,6.62929502 49.9831378,7.65698075 48.5656172,7.65698075 L48.5656172,7.65698075 Z M48.6058876,3.50828638 C47.8437689,3.50828638 47.3554894,4.2153821 47.3554894,5.20411764 C47.3554894,6.17387744 47.8538365,6.88097316 48.59582,6.88097316 C49.3378035,6.88097316 49.8361506,6.12494003 49.8361506,5.18414318 C49.8361506,4.22536933 49.3478711,3.50828638 48.6058876,3.50828638 L48.6058876,3.50828638 Z" id="Fill-21"></path>
                                <path d="M56.6036036,7.55011741 L55.5505308,7.55011741 L55.5505308,4.84557616 C55.5505308,4.01264138 55.2273602,3.59517526 54.5920935,3.59517526 C53.9668944,3.59517526 53.5360003,4.12849322 53.5360003,4.74870006 L53.5360003,7.55011741 L52.4829274,7.55011741 L52.4829274,4.18641914 C52.4829274,3.76995175 52.4708463,3.32352267 52.442657,2.83914213 L53.3708914,2.83914213 L53.4202227,3.5662123 L53.4504256,3.5662123 C53.7313121,3.06285603 54.3091934,2.74226602 54.9545277,2.74226602 C55.9492084,2.74226602 56.6036036,3.49829915 56.6036036,4.7287256 L56.6036036,7.55011741" id="Fill-22"></path>
                                <path d="M63.5069695,3.62513695 L62.3461731,3.62513695 L62.3461731,5.91221208 C62.3461731,6.49446745 62.5505458,6.78509577 62.9602978,6.78509577 C63.145542,6.78509577 63.3036036,6.76512132 63.4294489,6.73615836 L63.458645,7.53114168 C63.2532655,7.60904205 62.9784196,7.64799224 62.6391408,7.64799224 C61.8065488,7.64799224 61.311222,7.19257466 61.311222,6.00009968 L61.311222,3.62513695 L60.6195766,3.62513695 L60.6195766,2.84014085 L61.311222,2.84014085 L61.311222,1.97724438 L62.3461731,1.6666416 L62.3461731,2.83914213 L63.5069695,2.83914213 L63.5069695,3.62513695" id="Fill-23"></path>
                                <path d="M69.0944977,7.55011741 L68.0384045,7.55011741 L68.0384045,4.86555062 C68.0384045,4.02262861 67.715234,3.59617399 67.080974,3.59617399 C66.5343024,3.59617399 66.0268944,3.96470269 66.0268944,4.71074859 L66.0268944,7.55011741 L64.9708012,7.55011741 L64.9708012,0.67890479 L66.0268944,0.67890479 L66.0268944,3.50828638 L66.0470296,3.50828638 C66.3782543,2.99494288 66.8584797,2.74226602 67.4736111,2.74226602 C68.4793662,2.74226602 69.0944977,3.51727489 69.0944977,4.74870006 L69.0944977,7.55011741" id="Fill-24"></path>
                                <path d="M74.4857073,5.44680727 L71.3194413,5.44680727 C71.3395766,6.3386667 71.9335661,6.84202297 72.8134759,6.84202297 C73.2846404,6.84202297 73.713521,6.7641226 74.0920634,6.61930779 L74.2571724,7.34637797 C73.8091634,7.54013018 73.2806134,7.63700629 72.6644752,7.63700629 C71.1795015,7.63700629 70.3005984,6.70619668 70.3005984,5.26304228 C70.3005984,3.81888916 71.1996367,2.73327752 72.546684,2.73327752 C73.7578185,2.73327752 74.520944,3.62513695 74.520944,4.97241396 C74.524971,5.15617894 74.5149034,5.3209682 74.4857073,5.44680727 L74.4857073,5.44680727 Z M73.5182092,4.70076136 C73.5182092,3.97369119 73.1477208,3.46034769 72.4731904,3.46034769 C71.8671198,3.46034769 71.3889079,3.98367842 71.3194413,4.70076136 L73.5182092,4.70076136 L73.5182092,4.70076136 Z" id="Fill-25"></path>
                            </g>
                        </g>
                    </g>
                </g>
            </g>
        </g>
    </g>
</svg>