<?xml version="1.0" encoding="UTF-8"?>
<svg width="31px" height="19px" viewBox="0 0 31 19" version="1.1" xmlns="http://www.w3.org/2000/svg" xmlns:xlink="http://www.w3.org/1999/xlink">
    <title>8C9DD713-FED2-4BB8-AE4C-03EBC138590C</title>
    <g id="Page-1" stroke="none" stroke-width="1" fill="none" fill-rule="evenodd">
        <g id="Hotels-search-Rooms-&amp;-Guest" transform="translate(-824.000000, -984.000000)" fill-rule="nonzero">
            <g id="Group-5" transform="translate(800.000000, 953.000000)">
                <g id="Group-45" transform="translate(0.000000, 9.000000)">
                    <g id="Group-44" transform="translate(12.000000, 13.000000)">
                        <g id="svgexport-6-(2)-copy" transform="translate(12.000000, 9.000000)">
                            <g id="Group" transform="translate(1.722222, 1.722222)" fill="#A9CB73">
                                <polygon id="Path" points="2.06666667 14.3159722 18.6 14.3159722 18.6 16.3611111 20.6666667 16.3611111 20.6666667 14.3159722 20.6666667 11.2482639 0 11.2482639 0 14.3159722 0 16.3611111 2.06666667 16.3611111"></polygon>
                                <path d="M4.13333333,3.57899306 C4.13333333,3.01402344 4.59575,2.55642361 5.16666667,2.55642361 L8.26666667,2.55642361 C8.83758333,2.55642361 9.3,3.01402344 9.3,3.57899306 L9.3,6.13541667 L11.3666667,6.13541667 L11.3666667,3.57899306 C11.3666667,3.01402344 11.8290833,2.55642361 12.4,2.55642361 L15.5,2.55642361 C16.0709167,2.55642361 16.5333333,3.01402344 16.5333333,3.57899306 L16.5333333,6.13541667 L18.6,6.13541667 L18.6,1.02256944 C18.6,0.457599826 18.1375833,0 17.5666667,0 L3.1,0 C2.52908333,0 2.06666667,0.457599826 2.06666667,1.02256944 L2.06666667,6.13541667 L4.13333333,6.13541667 L4.13333333,3.57899306 Z" id="Path"></path>
                            </g>
                            <g id="Group" transform="translate(6.027778, 5.166667)" fill="#F4CD57">
                                <path d="M4.01851852,0 L1.00462963,0 C0.449571759,0 0,0.440396825 0,0.984126984 L0,3.44444444 L5.02314815,3.44444444 L5.02314815,0.984126984 C5.02314815,0.440396825 4.57357639,0 4.01851852,0 Z" id="Path"></path>
                                <path d="M11.0509259,0 L8.03703704,0 C7.48197917,0 7.03240741,0.440396825 7.03240741,0.984126984 L7.03240741,3.44444444 L12.0555556,3.44444444 L12.0555556,0.984126984 C12.0555556,0.440396825 11.6059838,0 11.0509259,0 Z" id="Path"></path>
                            </g>
                            <rect id="Rectangle" fill="#A9CB73" x="23.25" y="8.61111111" width="6.88888889" height="4.30555556"></rect>
                            <polygon id="Path" fill="#F4CD57" points="30.1388889 4.30555556 29.0625 0.861111111 26.9097222 0.861111111 25.8333333 4.30555556 27.9861111 4.30555556"></polygon>
                            <path d="M22.3888889,10.6777778 C22.3888889,9.53646111 21.4635389,8.61111111 20.3222222,8.61111111 L18.2555556,8.61111111 L13.0888889,8.61111111 L11.0222222,8.61111111 L5.85555556,8.61111111 L3.78888889,8.61111111 C2.64757222,8.61111111 1.72222222,9.53646111 1.72222222,10.6777778 L1.72222222,13.7777778 L22.3888889,13.7777778 L22.3888889,10.6777778 Z" id="Path" fill="#EAEAEA"></path>
                            <g id="Group" fill="#2D2D2D">
                                <path d="M0.516666667,18.9444444 L2.58333333,18.9444444 C2.86853333,18.9444444 3.1,18.7150631 3.1,18.4324324 L3.1,16.8963964 L18.6,16.8963964 L18.6,18.4324324 C18.6,18.7150631 18.8314667,18.9444444 19.1166667,18.9444444 L21.1833333,18.9444444 C21.4685333,18.9444444 21.7,18.7150631 21.7,18.4324324 L21.7,13.3123123 L21.7,10.2402402 C21.7,9.00424324 20.8108167,7.96997898 19.6333333,7.73189339 L19.6333333,3.07207207 C19.6333333,2.2252042 18.9379,1.53603604 18.0833333,1.53603604 L3.61666667,1.53603604 C2.7621,1.53603604 2.06666667,2.2252042 2.06666667,3.07207207 L2.06666667,7.73189339 C0.889183333,7.96997898 0,9.00424324 0,10.2402402 L0,13.3123123 L0,18.4324324 C0,18.7150631 0.231466667,18.9444444 0.516666667,18.9444444 Z M20.6666667,17.9204204 L19.6333333,17.9204204 L19.6333333,16.3843844 C19.6333333,16.1017538 19.4018667,15.8723724 19.1166667,15.8723724 L2.58333333,15.8723724 C2.29813333,15.8723724 2.06666667,16.1017538 2.06666667,16.3843844 L2.06666667,17.9204204 L1.03333333,17.9204204 L1.03333333,13.8243243 L20.6666667,13.8243243 L20.6666667,17.9204204 Z M3.1,3.07207207 C3.1,2.78995345 3.33198333,2.56006006 3.61666667,2.56006006 L18.0833333,2.56006006 C18.3680167,2.56006006 18.6,2.78995345 18.6,3.07207207 L18.6,7.68018018 L17.5666667,7.68018018 L17.5666667,5.63213213 C17.5666667,4.78526426 16.8712333,4.0960961 16.0166667,4.0960961 L12.9166667,4.0960961 C12.0621,4.0960961 11.3666667,4.78526426 11.3666667,5.63213213 L11.3666667,7.68018018 L10.3333333,7.68018018 L10.3333333,5.63213213 C10.3333333,4.78526426 9.6379,4.0960961 8.78333333,4.0960961 L5.68333333,4.0960961 C4.82876667,4.0960961 4.13333333,4.78526426 4.13333333,5.63213213 L4.13333333,7.68018018 L3.1,7.68018018 L3.1,3.07207207 Z M16.5333333,7.68018018 L12.4,7.68018018 L12.4,5.63213213 C12.4,5.35001351 12.6319833,5.12012012 12.9166667,5.12012012 L16.0166667,5.12012012 C16.30135,5.12012012 16.5333333,5.35001351 16.5333333,5.63213213 L16.5333333,7.68018018 Z M9.3,7.68018018 L5.16666667,7.68018018 L5.16666667,5.63213213 C5.16666667,5.35001351 5.39865,5.12012012 5.68333333,5.12012012 L8.78333333,5.12012012 C9.06801667,5.12012012 9.3,5.35001351 9.3,5.63213213 L9.3,7.68018018 Z M1.03333333,10.2402402 C1.03333333,9.39337237 1.72876667,8.7042042 2.58333333,8.7042042 L4.65,8.7042042 L9.81666667,8.7042042 L11.8833333,8.7042042 L17.05,8.7042042 L19.1166667,8.7042042 C19.9712333,8.7042042 20.6666667,9.39337237 20.6666667,10.2402402 L20.6666667,12.8003003 L1.03333333,12.8003003 L1.03333333,10.2402402 Z" id="Shape"></path>
                                <path d="M30.4833333,7.68018018 L23.25,7.68018018 C22.9648,7.68018018 22.7333333,7.90956156 22.7333333,8.19219219 L22.7333333,12.2882883 L22.7333333,15.8723724 L23.7666667,15.8723724 L23.7666667,12.8003003 L29.9666667,12.8003003 L29.9666667,15.8723724 L31,15.8723724 L31,12.2882883 L31,8.19219219 C31,7.90956156 30.7685333,7.68018018 30.4833333,7.68018018 Z M23.7666667,11.7762763 L23.7666667,8.7042042 L29.9666667,8.7042042 L29.9666667,11.7762763 L23.7666667,11.7762763 Z" id="Shape"></path>
                                <rect id="Rectangle" x="25.8333333" y="9.72822823" width="2.06666667" height="1.02402402"></rect>
                                <path d="M28.9333333,4.0960961 C29.0991833,4.0960961 29.2552167,4.01724625 29.35235,3.8830991 C29.4494833,3.74946396 29.4758333,3.57793994 29.42365,3.42177628 L28.3903167,0.349704204 C28.3195333,0.140803303 28.1226833,0 27.9,0 L25.8333333,0 C25.61065,0 25.4138,0.140803303 25.3430167,0.350216216 L24.3096833,3.42228829 C24.2569833,3.57845195 24.28385,3.74997598 24.3809833,3.88361111 C24.4781167,4.01724625 24.63415,4.0960961 24.8,4.0960961 L26.35,4.0960961 L26.35,5.63213213 L25.3166667,5.63213213 L25.3166667,6.65615616 L28.4166667,6.65615616 L28.4166667,5.63213213 L27.3833333,5.63213213 L27.3833333,4.0960961 L28.9333333,4.0960961 Z M26.20585,1.02402402 L27.528,1.02402402 L28.2167167,3.07207207 L25.5166167,3.07207207 L26.20585,1.02402402 Z" id="Shape"></path>
                            </g>
                        </g>
                    </g>
                </g>
            </g>
        </g>
    </g>
</svg>