<?xml version="1.0" encoding="UTF-8"?>
<svg width="133px" height="45px" viewBox="0 0 133 45" version="1.1" xmlns="http://www.w3.org/2000/svg" xmlns:xlink="http://www.w3.org/1999/xlink">
    <title>39FA8587-3F93-4BCA-9C56-8632A452D4A3</title>
    <defs>
        <linearGradient x1="57.4332451%" y1="9.59026547%" x2="84.0193467%" y2="60.8514694%" id="linearGradient-1">
            <stop stop-color="#FF177B" offset="0%"></stop>
            <stop stop-color="#FFEC73" offset="100%"></stop>
        </linearGradient>
        <linearGradient x1="46.193757%" y1="-44.0352456%" x2="35.243718%" y2="101.060094%" id="linearGradient-2">
            <stop stop-color="#064AA2" offset="0%"></stop>
            <stop stop-color="#63FFD4" offset="100%"></stop>
        </linearGradient>
        <path d="M12.5165877,11.43 L0.450236967,0 C0.168729234,0.0653568168 0,0.275816699 0,0.63 L0,11.43 L0,22.5 C0,22.800498 0.121201232,22.979287 0.27014218,23.04 L12.5165877,11.43 Z" id="path-3"></path>
        <path d="M0.588403036,11.5906678 L7.56276072,7.76142765 C9.28021429,6.81026299 10.6432283,6.05538837 10.6432283,6.05538837 L15.715089,3.32502043 L12.3384766,0.0457168366 L0.0921740024,11.6571615 C0.228670356,11.7010375 0.469249217,11.6770548 0.656939183,11.5844686" id="path-5"></path>
        <linearGradient x1="73.7720926%" y1="50%" x2="10.5768231%" y2="100%" id="linearGradient-7">
            <stop stop-color="#FF4521" offset="0%"></stop>
            <stop stop-color="#8A33DB" offset="100%"></stop>
        </linearGradient>
        <linearGradient x1="0%" y1="8.94870333%" x2="64.2244373%" y2="77.6676933%" id="linearGradient-8">
            <stop stop-color="#00A3B5" offset="0%"></stop>
            <stop stop-color="#D6FFA1" offset="100%"></stop>
        </linearGradient>
        <path d="M0.731997407,0.193218683 C0.499709963,0.0688767453 0.268914532,0.0333069809 0.0822164137,0.0835792263 L12.1585851,11.5302063 L15.4995851,8.3701814 L10.4635071,5.58203023 C10.4635071,5.58203023 5.71684037,2.95354107 2.85077511,1.36640734 L0.731997407,0.193218683 Z" id="path-9"></path>
    </defs>
    <g id="Page-1" stroke="none" stroke-width="1" fill="none" fill-rule="evenodd">
        <g id="Home-Hotels" transform="translate(-143.000000, -5323.000000)">
            <g id="footer" transform="translate(0.000000, 4312.000000)">
                <g id="black" transform="translate(0.000000, 703.000000)">
                    <g id="Play-Store" transform="translate(143.000000, 308.000000)">
                        <rect id="background" fill="#000000" x="0" y="0" width="133" height="45" rx="7"></rect>
                        <g id="icon" transform="translate(5.402844, 16.020000)">
                            <path d="M10.8218285,5.58203023 C10.8218285,5.58203023 1.64551336,0.500602326 1.10657411,0.202063953 C0.566738117,-0.0964744186 0.0295923384,0.0846209302 0.0295923384,0.708593023 L0.0295923384,11.5563837 L0.0295923384,22.6247163 C0.0295923384,23.0917988 0.413396,23.2944105 0.882389727,23.0353186 C1.35048672,22.7762267 10.8218285,17.5307372 10.8218285,17.5307372 C10.8218285,17.5307372 12.1084938,16.8186228 12.7518264,16.4625656 C13.7871864,15.8895379 15.8579064,14.7434826 15.8579064,14.7434826 C15.8579064,14.7434826 20.1308608,12.3766919 20.6993923,12.0629128 C21.2670272,11.7482372 21.2123262,11.3170151 20.7334684,11.0686814 C20.2537138,10.8212442 15.8579064,8.3701814 15.8579064,8.3701814 L10.8218285,5.58203023 Z" id="orange" fill="url(#linearGradient-1)"></path>
                            <g id="blue" transform="translate(0.000000, 0.090000)">
                                <mask id="mask-4" fill="white">
                                    <use xlink:href="#path-3"></use>
                                </mask>
                                <use id="Clip-2" fill="url(#linearGradient-2)" xlink:href="#path-3"></use>
                                <path d="M15.8483412,8.28 L10.8056872,5.49 C10.7880272,5.53059828 1.61529082,0.439837399 1.08056872,0.18 C0.536936295,-0.158335986 0,0.0230919773 0,0.63 L0,11.52 C0,11.5159248 0,22.1357478 0,22.59 C0,23.0725268 0.38365398,23.2755106 0.81042654,23.04 C1.32037924,22.7563751 10.7880272,17.5012513 10.8056872,17.46 L15.8483412,14.67 C15.8221411,14.7088773 20.093429,12.3377396 20.6208531,12.06 C21.2291524,11.7081306 21.1744727,11.2761165 20.7109005,11.07 C20.2162342,10.779435 15.8221411,8.3238704 15.8483412,8.28" id="Fill-1" mask="url(#mask-4)"></path>
                            </g>
                            <g id="red" transform="translate(0.178600, 11.475349)">
                                <mask id="mask-6" fill="white">
                                    <use xlink:href="#path-5"></use>
                                </mask>
                                <g id="Clip-8"></g>
                                <path d="M10.627087,-5.89534884 C10.609427,-5.85475056 1.4366906,-10.9455114 0.901968496,-11.2053488 C0.358336071,-11.5436848 -0.178600224,-11.3622569 -0.178600224,-10.7553488 L-0.178600224,0.134651163 C-0.178600224,0.130575931 -0.178600224,10.7503989 -0.178600224,11.2046512 C-0.178600224,11.687178 0.205053756,11.8901617 0.631826316,11.6546512 C1.14177901,11.3710263 10.609427,6.11590242 10.627087,6.07465116 L15.669741,3.28465116 C15.6435409,3.32352846 19.9148288,0.952390717 20.4422529,0.674651163 C21.0505522,0.322781794 20.9958725,-0.109232318 20.5323002,-0.315348837 C20.0376339,-0.605913822 15.6435409,-3.06147844 15.669741,-3.10534884 L10.627087,-5.89534884 Z" id="Fill-7" fill="url(#linearGradient-7)" mask="url(#mask-6)"></path>
                            </g>
                            <g id="green" transform="translate(0.358321, 0.000000)">
                                <mask id="mask-10" fill="white">
                                    <use xlink:href="#path-9"></use>
                                </mask>
                                <use id="Clip-5" fill="url(#linearGradient-8)" xlink:href="#path-9"></use>
                                <path d="M15.4900199,8.37 L10.4473658,5.58 C10.4297059,5.62059828 1.25696945,0.529837399 0.72224735,0.27 C0.178614925,-0.0683359864 -0.35832137,0.113091977 -0.35832137,0.72 L-0.35832137,11.61 C-0.35832137,11.6059248 -0.35832137,22.2257478 -0.35832137,22.68 C-0.35832137,23.1625268 0.0253326101,23.3655106 0.45210517,23.13 C0.962057866,22.8463751 10.4297059,17.5912513 10.4473658,17.55 L15.4900199,14.76 C15.4638198,14.7988773 19.7351077,12.4277396 20.2625317,12.15 C20.870831,11.7981306 20.8161514,11.3661165 20.3525791,11.16 C19.8579128,10.869435 15.4638198,8.4138704 15.4900199,8.37" id="Fill-4" mask="url(#mask-10)"></path>
                            </g>
                        </g>
                        <g id="Google-play" transform="translate(31.246445, 18.090000)" fill="#FFFFFF">
                            <path d="M59.8468727,13.3082821 L58.8497151,14.2542332 C58.6192691,14.3815608 58.3900588,14.5293851 58.1614663,14.6343527 C57.4688928,14.9504979 56.7645807,15.03 56.1387315,15.03 C55.4727242,15.03 54.4286125,14.9865223 53.3634949,14.2119977 C51.8838218,13.1641845 51.2369668,11.3629644 51.2369668,9.79341857 C51.2369668,6.54376918 53.8682519,4.95 56.0145502,4.95 C56.7645807,4.95 57.5349993,5.13881755 58.1614663,5.53694929 C59.2031067,6.22948734 59.4724752,7.12947625 59.6219871,7.61145788 L54.7208402,9.60211658 L53.1157501,9.72758087 C53.6353347,12.3921443 55.4282413,13.9418147 57.4095823,13.9418147 C58.3993261,13.9418147 59.1339112,13.6169739 59.8079502,13.2821955 C59.8079502,13.2821955 59.9432522,13.2113889 59.8468727,13.3082821 L59.8468727,13.3082821 Z M56.8522769,7.96297823 C57.2456235,7.81666049 57.450237,7.69035201 57.450237,7.39646596 C57.450237,6.55357573 56.5187874,5.58 55.4071558,5.58 C54.5838155,5.58 53.0379147,6.23655396 53.0379147,8.51635943 C53.0379147,8.87214914 53.0794482,9.25107457 53.1002149,9.63 L56.8522769,7.96297823 L56.8522769,7.96297823 Z" id="Fill-1"></path>
                            <path d="M49.6184659,13.1942826 C49.6184659,14.0065721 49.7625619,14.1329695 50.4454785,14.1967878 C50.801408,14.2389203 51.1561059,14.2575082 51.507109,14.2996407 L50.7385969,14.76 L47.0764643,14.76 C47.5567844,14.1329695 47.6393009,14.0703904 47.6393009,13.6527831 L47.6393009,13.1862279 L47.6312956,0.754667114 L46.014218,0.754667114 L47.5709477,0 L50.5427741,0 C49.8986526,0.375474771 49.7059088,0.604105449 49.6233922,1.33584754 L49.6184659,13.1942826" id="Fill-2"></path>
                            <path d="M43.9367449,5.9757984 C44.4132038,6.37042428 45.4073123,7.20799759 45.4073123,8.79641324 C45.4073123,10.3445609 44.5410792,11.07434 43.6674687,11.7650902 C43.3994222,12.0370537 43.0858815,12.331939 43.0858815,12.7878961 C43.0858815,13.2506677 43.3994222,13.501568 43.6250485,13.6886591 L44.3744723,14.2716151 C45.2855847,15.0466182 46.1161602,15.7571926 46.1161602,17.2006436 C46.1161602,19.1669585 44.2275385,21.15 40.6587076,21.15 C37.6524055,21.15 36.1990521,19.7071685 36.1990521,18.1602598 C36.1990521,17.4075589 36.5709975,16.3413876 37.7981097,15.610989 C39.0842414,14.8186397 40.8265441,14.712704 41.7597887,14.6507533 C41.4683803,14.2716151 41.1357813,13.8745112 41.1357813,13.226507 C41.1357813,12.872149 41.2415244,12.6608972 41.3435788,12.4118554 C41.1167229,12.4335382 40.8880226,12.4558404 40.6802251,12.4558404 C38.4799071,12.4558404 37.2361956,10.801757 37.2361956,9.17183441 C37.2361956,8.21035973 37.6714639,7.14356887 38.5653623,6.37042428 C39.7482099,5.38912538 41.1585283,5.22 42.2792827,5.22 L46.5545024,5.22 L45.2253357,5.9757984 L43.9367449,5.9757984 L43.9367449,5.9757984 Z M42.477166,15.2327047 C42.3054917,15.21 42.2026111,15.21 41.9956103,15.21 C41.8059629,15.21 40.6761355,15.2516253 39.8010305,15.5505704 C39.3380677,15.7227477 38,16.2317113 38,17.7434657 C38,19.2520666 39.4446669,20.34 41.6795313,20.34 C43.6875626,20.34 44.7535545,19.3605446 44.7535545,18.0417802 C44.7535545,16.9563696 44.0637586,16.3837067 42.477166,15.2327047 L42.477166,15.2327047 Z M43.0638344,11.2063755 C43.5413121,10.7252714 43.5829384,10.0607424 43.5829384,9.68339364 C43.5829384,8.18449782 42.6971561,5.85 40.9800729,5.85 C40.4444409,5.85 39.8641218,6.12112289 39.5347847,6.54046787 C39.1852465,6.97463506 39.0805687,7.53787898 39.0805687,8.07950717 C39.0805687,9.47526513 39.8873836,11.79 41.662009,11.79 C42.1798886,11.79 42.7369459,11.5361697 43.0638344,11.2063755 L43.0638344,11.2063755 Z" id="Fill-3"></path>
                            <path d="M31.006637,15.03 C27.7018634,15.03 25.9336493,12.4243833 25.9336493,10.065168 C25.9336493,7.3085915 28.156547,4.95 31.3183848,4.95 C34.3748692,4.95 36.2890995,7.372843 36.2890995,9.91670339 C36.2890995,12.4013027 34.3970489,15.03 31.006637,15.03 L31.006637,15.03 Z M33.5911397,13.3258855 C34.095603,12.6502631 34.2180095,11.8069863 34.2180095,10.9849791 C34.2180095,9.12576637 33.3426174,5.58 30.7553887,5.58 C30.0673157,5.58 29.374297,5.85212568 28.8747794,6.29628484 C28.0599724,7.03509043 27.9146919,7.96344563 27.9146919,8.8742847 C27.9146919,10.959956 28.9335098,14.4 31.4620081,14.4 C32.2780516,14.4 33.1107869,14.0002568 33.5911397,13.3258855 L33.5911397,13.3258855 Z" id="Fill-4"></path>
                            <path d="M19.9304558,15.03 C16.6236889,15.03 14.8578199,12.4243833 14.8578199,10.065168 C14.8578199,7.3085915 17.0822601,4.95 20.2441826,4.95 C23.3000913,4.95 25.2132701,7.372843 25.2132701,9.91670339 C25.2132701,12.4013027 23.3228966,15.03 19.9304558,15.03 L19.9304558,15.03 Z M22.5162398,13.3258855 C23.0172394,12.6502631 23.1421801,11.8069863 23.1421801,10.9849791 C23.1421801,9.12576637 22.2638845,5.58 19.6778604,5.58 C18.9869758,5.58 18.3010392,5.85212568 17.8000396,6.29628484 C16.9835958,7.03509043 16.8388626,7.96344563 16.8388626,8.8742847 C16.8388626,10.959956 17.8625099,14.4 20.3879192,14.4 C21.2025075,14.4 22.0344143,14.0002568 22.5162398,13.3258855 L22.5162398,13.3258855 Z" id="Fill-5"></path>
                            <path d="M13.486847,14.4072368 L10.6876317,15.052039 C9.55346686,15.2319114 8.5350079,15.39 7.45653039,15.39 C2.05733661,15.39 0,11.3923508 0,8.26356643 C0,4.44267772 2.91492114,0.9 7.90697882,0.9 C8.96318141,0.9 9.97916539,1.05622138 10.9048122,1.31015893 C12.3718633,1.72467463 13.0580547,2.2356617 13.486847,2.53503415 L11.8607776,4.08853443 L11.175205,4.24288862 L11.6640158,3.45929213 C11.0019556,2.80888836 9.78487856,1.60828659 7.47509282,1.60828659 C4.38692228,1.60828659 2.05733661,3.9696568 2.05733661,7.41710794 C2.05733661,11.1197414 4.71733364,14.6026691 8.98360009,14.6026691 C10.2371832,14.6026691 10.8825373,14.349354 11.4684915,14.1128435 L11.4684915,10.9386242 L8.51273297,11.09858 L10.0794025,10.2521215 L14.2274882,10.2521215 L13.7201149,10.7431919 C13.5833716,10.8602023 13.5648092,10.9000357 13.5264468,11.0568794 C13.5060282,11.2361295 13.486847,11.8062441 13.486847,12.0066556 L13.486847,14.4072368" id="Fill-6"></path>
                            <path d="M65.887895,13.4045796 L65.887895,18.72 L64.8341232,18.72 L64.8341232,5.19428052 L65.887895,5.19428052 L65.887895,6.73479386 C66.5743592,5.73911884 67.8287613,4.95 69.2856456,4.95 C71.8987775,4.95 73.6587678,6.93578416 73.6587678,10.0792724 C73.6587678,13.201734 71.8987775,15.2289531 69.2856456,15.2289531 C67.910248,15.2289531 66.6780696,14.5183751 65.887895,13.4045796 L65.887895,13.4045796 Z M72.5781991,10.1603132 C72.5781991,7.76611509 71.3407968,5.94 69.146685,5.94 C67.7841174,5.94 66.4810343,7.01992022 65.9146919,7.96172564 L65.9146919,12.3370274 C66.4810343,13.2807077 67.7841174,14.4 69.146685,14.4 C71.3407968,14.4 72.5781991,12.5582611 72.5781991,10.1603132 L72.5781991,10.1603132 Z" id="Fill-7"></path>
                            <polygon id="Fill-8" points="75.0995261 1.44 76.1800948 1.44 76.1800948 15.03 75.0995261 15.03"></polygon>
                            <path d="M87.9279723,17.7840986 C88.1533113,17.8849257 88.5379309,17.9467827 88.7817909,17.9467827 C89.4263221,17.9467827 89.875148,17.6826531 90.2782886,16.7498486 L91.0469106,15.004861 L86.8957346,5.13 L88.0712015,5.13 L91.6321746,13.6873056 L95.1585751,5.13 L96.3507109,5.13 L91.2876838,17.0770725 C90.7623044,18.3080279 89.9356499,18.9 88.8003119,18.9 C88.4595253,18.9 88.0100821,18.8393801 87.7470838,18.7583473 L87.9279723,17.7840986" id="Fill-9"></path>
                            <path d="M84.9540877,15.0165911 C84.8833075,14.6751715 84.829912,14.3741751 84.7907967,14.1229301 C84.758511,13.8723069 84.7398846,13.6160868 84.7398846,13.3555134 C84.3766708,13.88972 83.8619626,14.3343739 83.2044524,14.6844999 C82.5463213,15.0371136 81.9210968,15.21 81.0636638,15.21 C80.031143,15.21 79.229589,14.9556455 78.65776,14.4394739 C78.0877937,13.9239241 77.8009479,13.2255376 77.8009479,12.3418269 C77.8009479,11.4593599 78.2163155,10.7429385 79.0445673,10.1950503 C79.872819,9.64467451 80.9432133,9.37104134 82.2681678,9.37104134 L84.7398846,9.37104134 L84.7398846,8.1477767 C84.7398846,7.44317129 84.5002256,6.88906413 84.0215284,6.48732089 C83.5409685,6.08495575 82.8666946,5.88159656 81.9924978,5.88159656 C81.1934273,5.88159656 80.5452303,6.06754273 80.051632,6.42948479 C79.5623798,6.79888956 79.3158911,7.25660322 79.3158911,7.80822281 L78.2312166,7.80822281 L78.208865,7.75536186 C78.1697496,7.01157716 78.5093701,6.35921081 79.2314517,5.79577525 C79.9504288,5.23296157 80.8923013,4.95 82.0514813,4.95 C83.2069359,4.95 84.1419788,5.22860832 84.8466757,5.78458116 C85.5507518,6.33495696 85.9040316,7.13035883 85.9040316,8.17016487 L85.9040316,13.0271536 C85.9040316,13.3760359 85.9207953,13.7131022 85.9642568,14.041462 C86.00896,14.3704437 86.0803611,14.6988035 86.1753555,15.0165911 L84.9540877,15.0165911 L84.9540877,15.0165911 Z M81.1911692,14.31 C82.0906739,14.31 82.7370765,14.1074687 83.3977472,13.7067819 C84.0540754,13.3085955 84.500726,12.7891403 84.7345972,12.1602933 L84.7345972,10.26 L82.253205,10.26 C81.3053133,10.26 80.520573,10.4712826 79.9033267,10.8975984 C79.2848397,11.322664 78.971564,11.8371184 78.971564,12.4353357 C78.971564,12.9997978 79.1700753,13.4511175 79.5646167,13.7930452 C79.9603987,14.1387236 80.5013422,14.31 81.1911692,14.31 L81.1911692,14.31 Z" id="Fill-10"></path>
                        </g>
                        <g id="Get-it-on" transform="translate(30.886256, 7.110000)" fill="#FFFFFF">
                            <path d="M0.00382440667,3.26799064 C0.00382440667,1.32938469 1.55270911,0.0823552124 3.47873514,0.0823552124 C4.76957577,0.0823552124 5.61380167,0.655112045 6.13981458,1.35649403 L5.19696126,1.86464989 C4.83966947,1.40263758 4.21378855,1.04329467 3.47873514,1.04329467 C2.16866526,1.04329467 1.19541732,1.9661657 1.19541732,3.26799064 C1.19541732,4.55078137 2.16866526,5.49268662 3.47873514,5.49268662 C4.15423992,5.49268662 4.74972623,5.2065966 5.04746938,4.938964 L5.04746938,3.98783005 L3.06189472,3.98783005 L3.06189472,3.03669609 L6.19936321,3.03669609 L6.19936321,5.33579854 C5.55425304,6.01007119 4.62070419,6.46227799 3.47873514,6.46227799 C1.55270911,6.46227799 0.00382440667,5.19794468 0.00382440667,3.26799064" id="Fill-1"></path>
                            <polyline id="Fill-2" points="7.70131201 6.3684556 7.70131201 0.176177606 12.3010302 0.176177606 12.3010302 1.13311857 8.87906624 1.13311857 8.87906624 2.72918011 12.2306039 2.72918011 12.2306039 3.68554111 8.87906624 3.68554111 8.87906624 5.4120946 12.3010302 5.4120946 12.3010302 6.3684556 7.70131201 6.3684556"></polyline>
                            <polyline id="Fill-3" points="15.4291484 6.3684556 15.4291484 1.13311857 13.4274918 1.13311857 13.4274918 0.176177606 18.5904408 0.176177606 18.5904408 1.13311857 16.5887842 1.13311857 16.5887842 6.3684556 15.4291484 6.3684556"></polyline>
                            <polygon id="Fill-4" points="22.7208 0.176177606 23.8472616 0.176177606 23.8472616 6.3684556 22.7208 6.3684556"></polygon>
                            <polyline id="Fill-5" points="27.0698707 6.3684556 27.0698707 1.13311857 25.067595 1.13311857 25.067595 0.176177606 30.230544 0.176177606 30.230544 1.13311857 28.2295066 1.13311857 28.2295066 6.3684556 27.0698707 6.3684556"></polyline>
                            <path d="M34.0792878,3.27260542 C34.0792878,1.4322764 35.4960151,0.0823552124 37.5059224,0.0823552124 C39.504531,0.0823552124 40.9319292,1.4322764 40.9319292,3.27260542 C40.9319292,5.1123568 39.504531,6.46227799 37.5059224,6.46227799 C35.4960151,6.46227799 34.0792878,5.1123568 34.0792878,3.27260542 L34.0792878,3.27260542 Z M39.7115958,3.22540541 C39.7115958,1.96264647 38.8435437,1.02057915 37.5059203,1.02057915 C36.1583193,1.02057915 35.2996212,1.96264647 35.2996212,3.22540541 C35.2996212,4.47844641 36.1583193,5.43023166 37.5059203,5.43023166 C38.8435437,5.43023166 39.7115958,4.47844641 39.7115958,3.22540541 L39.7115958,3.22540541 Z" id="Fill-6"></path>
                            <polyline id="Fill-7" points="46.8527012 6.3684556 43.4047389 1.94042877 43.4047389 6.3684556 42.2461344 6.3684556 42.2461344 0.176177606 43.4350656 0.176177606 46.8130908 4.46559299 46.8130908 0.176177606 47.9723142 0.176177606 47.9723142 6.3684556 46.8527012 6.3684556"></polyline>
                        </g>
                    </g>
                </g>
            </g>
        </g>
    </g>
</svg>