<svg width="25" height="25" viewBox="0 0 25 25" xmlns="http://www.w3.org/2000/svg">
    <g fill="#0970CE" fill-rule="nonzero">
        <path d="M6.25 25h2.49a.246.246 0 0 0 .244-.248v-5.09a.25.25 0 0 0-.19-.241.792.792 0 0 1-.59-.808.8.8 0 0 1 .802-.756h6.988a.8.8 0 0 1 .802.756.792.792 0 0 1-.59.808.25.25 0 0 0-.19.241v5.09c0 .137.109.248.244.248h2.246c.135 0 .244-.11.244-.248V4.365a.787.787 0 0 0-.781-.794H7.03a.787.787 0 0 0-.781.794V25zm8.984-18.254c0-.438.35-.794.782-.794.431 0 .781.356.781.794v.794c0 .438-.35.793-.781.793a.787.787 0 0 1-.782-.793v-.794zm0 3.968c0-.438.35-.793.782-.793.431 0 .781.355.781.793v.794c0 .438-.35.794-.781.794a.787.787 0 0 1-.782-.794v-.794zm0 3.969c0-.439.35-.794.782-.794.431 0 .781.355.781.794v.793c0 .439-.35.794-.781.794a.787.787 0 0 1-.782-.794v-.793zM11.72 6.746c0-.438.35-.794.781-.794.432 0 .781.356.781.794v.794c0 .438-.35.793-.781.793a.787.787 0 0 1-.781-.793v-.794zm0 3.968c0-.438.35-.793.781-.793.432 0 .781.355.781.793v.794c0 .438-.35.794-.781.794a.787.787 0 0 1-.781-.794v-.794zm0 3.969c0-.439.35-.794.781-.794.432 0 .781.355.781.794v.793c0 .439-.35.794-.781.794a.787.787 0 0 1-.781-.794v-.793zM8.203 6.746c0-.438.35-.794.781-.794.432 0 .782.356.782.794v.794c0 .438-.35.793-.782.793a.787.787 0 0 1-.78-.793v-.794zm0 3.968c0-.438.35-.793.781-.793.432 0 .782.355.782.793v.794c0 .438-.35.794-.782.794a.787.787 0 0 1-.78-.794v-.794zm0 3.969c0-.439.35-.794.781-.794.432 0 .782.355.782.794v.793c0 .439-.35.794-.782.794a.787.787 0 0 1-.78-.794v-.793z"/>
        <path d="M10.938 25h3.124c.124 0 .224-.107.224-.24v-4.878c0-.132-.1-.24-.223-.24h-3.126c-.123 0-.223.108-.223.24v4.879c0 .132.1.239.223.239zM16.964.893c0-.493-.363-.893-.811-.893H8.847c-.448 0-.811.4-.811.893V2.4c0 .154.113.279.253.279h8.422c.14 0 .253-.125.253-.28V.894zM24.256 8.929h-3.488a.239.239 0 0 0-.232.245v15.581c0 .135.104.245.232.245h3.488c.41 0 .744-.351.744-.784V9.713c0-.433-.333-.784-.744-.784zm-.744 11.76c0 .432-.333.783-.744.783s-.744-.35-.744-.784v-.784c0-.433.333-.784.744-.784.41 0 .744.351.744.784v.784zm0-3.529c0 .433-.333.784-.744.784s-.744-.35-.744-.784v-.784c0-.433.333-.784.744-.784.41 0 .744.351.744.784v.784zm0-3.528c0 .434-.333.784-.744.784s-.744-.35-.744-.784v-.784c0-.433.333-.784.744-.784.41 0 .744.351.744.784v.784zM0 9.713v14.503c0 .433.333.784.744.784h3.488c.128 0 .232-.11.232-.245V9.174a.239.239 0 0 0-.232-.245H.744c-.41 0-.744.35-.744.784zm1.488 3.135c0-.433.333-.784.744-.784s.744.351.744.784v.784c0 .434-.333.784-.744.784-.41 0-.744-.35-.744-.784v-.784zm0 3.528c0-.433.333-.784.744-.784s.744.351.744.784v.784c0 .433-.333.784-.744.784-.41 0-.744-.35-.744-.784v-.784zm0 3.528c0-.433.333-.784.744-.784s.744.351.744.784v.784c0 .433-.333.784-.744.784-.41 0-.744-.35-.744-.784v-.784z"/>
    </g>
</svg>
