<svg width="25" height="25" viewBox="0 0 25 25" xmlns="http://www.w3.org/2000/svg">
    <path d="m18.051 24.969-5.551-2.02-5.551 2.02a.522.522 0 0 1-.699-.49v-1.506c0-.542.275-1.038.734-1.325l3.433-2.145v-6.754L.715 16.63A.522.522 0 0 1 0 16.146v-.998c0-.85.415-1.647 1.11-2.134L10.417 6.5V2.083C10.417.934 11.35 0 12.5 0s2.083.934 2.083 2.083V6.5l9.307 6.513A2.608 2.608 0 0 1 25 15.148v.998c0 .37-.376.62-.715.483l-9.702-3.881v6.754l3.433 2.146c.459.288.734.783.734 1.325v1.506a.523.523 0 0 1-.699.49z" fill="#FFF" fill-rule="nonzero"/>
</svg>
