<?xml version="1.0" encoding="UTF-8"?>
<svg width="16px" height="16px" viewBox="0 0 16 16" version="1.1" xmlns="http://www.w3.org/2000/svg" xmlns:xlink="http://www.w3.org/1999/xlink">
    <title>6FBF26AD-1825-4C73-B262-204117C17AD9</title>
    <g id="Page-1" stroke="none" stroke-width="1" fill="none" fill-rule="evenodd">
        <g id="Hotels-search-Rooms-&amp;-Guest" transform="translate(-928.000000, -1351.000000)" fill-rule="nonzero">
            <g id="Group-5" transform="translate(800.000000, 953.000000)">
                <g id="Group-45" transform="translate(0.000000, 9.000000)">
                    <g id="svgexport-6-(3)" transform="translate(128.000000, 389.000000)">
                        <path d="M8,0 C3.603125,0 0,3.603125 0,8 C0,12.396875 3.603125,16 8,16 C12.396875,16 16,12.396875 16,8 C16,3.603125 12.396875,0 8,0 Z" id="Path" fill="#77DD00"></path>
                        <path d="M16,8 C16,12.396875 12.396875,16 8,16 L8,0 C12.396875,0 16,3.603125 16,8 Z" id="Path" fill="#69BF3D"></path>
                        <polygon id="Path" fill="#FFFFFF" points="13 6.6 13 8.4 9.4 8.4 9.4 12 7.6 12 7.6 8.4 4 8.4 4 6.6 7.6 6.6 7.6 3 9.4 3 9.4 6.6"></polygon>
                    </g>
                </g>
            </g>
        </g>
    </g>
</svg>