<svg width="26" height="26" viewBox="0 0 26 26" xmlns="http://www.w3.org/2000/svg">
    <g fill="#FFF" fill-rule="nonzero">
        <circle transform="rotate(-6.947 11.883 3.742)" cx="11.883" cy="3.742" r="2.31"/>
        <path d="m22.805 7.052-2.279-.21 1.436 3.15a.44.44 0 0 0 .393.271h.466c.278 0 .487-.287.434-.595l-.45-2.616zM25.847 5.204l-.19-.177h-.923c-.158 0-.286-.136-.286-.304 0-.165.124-.299.277-.304a2.289 2.289 0 0 0-.978-.131l-1.422.123L20.346.314A.54.54 0 0 0 19.863 0h-.658c-.342 0-.6.332-.534.69l.725 3.975-1.838.16-.212-.62a.584.584 0 0 0-.544-.406h-1.56c-.091 0-.14.062-.157.09a.21.21 0 0 0-.018.187l.48 1.248c.195.509.636.853 1.15.897l7.05.612c1.263.11 1.946-.812 2.1-.916a.493.493 0 0 0 0-.713zM16.224 8.24 13.48 9.781l-1.214-1.424.945.715.109-.453a1.566 1.566 0 0 0-1.146-1.89l-2.165-.527a1.547 1.547 0 0 0-1.57.534c-.102.003-1.13.08-3.526.25-.558.04-.986.513-.974 1.076l.078 3.925a.602.602 0 0 0-.413.435l-.155.638a.603.603 0 0 0-.01.05l-1.08-.267a.859.859 0 0 0-1.04.635L.996 14.81a1.886 1.886 0 0 1 1 .132l2.535 1.071 1.744-2.825.024-.1a.607.607 0 0 0-.216-.622 1.06 1.06 0 0 0 .036-.294l-.063-3.148 1.707-.122L6.56 13.92l-1.765 2.914-3.05-1.29a1.255 1.255 0 0 0-1.647.68 1.272 1.272 0 0 0 .674 1.66l4.047 1.71c.57.241 1.235.03 1.56-.508l2.14-3.532.977.142 1.402 3.755-.434 5.174a1.265 1.265 0 0 0 1.148 1.37 1.261 1.261 0 0 0 1.36-1.156l.458-5.46a1.276 1.276 0 0 0-.076-.552l-1.51-4.047.51-2.134a1.304 1.304 0 0 1-.366-.43l-1.32-2.475 1.776 2.08c.324.38.871.483 1.311.236l3.494-1.963c.508-.286.69-.932.407-1.444a1.049 1.049 0 0 0-1.432-.41zm-10.67 5.328-1.51-.372.117-.479c.31.546 1.017.697 1.518.336l-.125.515z"/>
    </g>
</svg>
