<svg width="28" height="18" viewBox="0 0 28 18" xmlns="http://www.w3.org/2000/svg">
    <path d="M27.561 12.076v-3.74c0-.822-.388-2.022-2.179-3.173 0 0-2.365-5.163-6.574-5.163H9.193c-4.21 0-6.575 5.163-6.575 5.163C.828 6.313.44 7.513.44 8.336v3.74A.465.465 0 0 0 0 12.54v2.38c0 .203.131.37.312.434v2.179c0 .257.208.466.465.466H3.98a.465.465 0 0 0 .465-.466v-2.157a26.276 26.276 0 0 1 3.949-.968h11.215c1.307.217 2.632.532 3.949.968v2.157c0 .257.207.466.464.466h3.203a.465.465 0 0 0 .464-.466v-2.179a.46.46 0 0 0 .312-.434v-2.38a.465.465 0 0 0-.439-.465zm-20.557.21h-3.44a.943.943 0 0 1-.942-.941v-.943c0-.52.423-.942.941-.942.055 0 .109.01.16.028l3.91 1.414a.47.47 0 0 1 .311.443.943.943 0 0 1-.94.942zm10.217-.247a.36.36 0 0 1-.36.361H11.14a.36.36 0 0 1-.36-.361v-.843c0-.2.16-.36.36-.36h5.721c.2 0 .36.16.36.36v.843zM5.066 5.269c.939-1.639 2.552-3.734 4.667-3.734h8.534c2.115 0 3.729 2.095 4.667 3.734H5.066zm20.312 6.075c0 .52-.422.943-.94.943h-3.441a.943.943 0 0 1-.941-.943c0-.199.124-.376.311-.444l3.91-1.413a.46.46 0 0 1 .16-.029c.52 0 .941.423.941.943v.943z" fill="#FFF" fill-rule="nonzero"/>
</svg>
