<?xml version="1.0" encoding="UTF-8"?>
<svg width="45px" height="45px" viewBox="0 0 45 45" version="1.1" xmlns="http://www.w3.org/2000/svg" xmlns:xlink="http://www.w3.org/1999/xlink">
    <title>2CA0F7D8-3249-4EC4-82C4-422D97B2F3AD</title>
    <g id="Page-1" stroke="none" stroke-width="1" fill="none" fill-rule="evenodd">
        <g id="-Flights-search-result-2" transform="translate(-158.000000, -1158.000000)" fill="#FDD020" fill-rule="nonzero">
            <g id="video" transform="translate(96.000000, 469.000000)">
                <g id="Group-17" transform="translate(13.000000, 523.000000)">
                    <g id="Group-37-Copy" transform="translate(4.000000, 155.000000)">
                        <g id="sun-copy" transform="translate(67.500000, 33.500000) scale(-1, 1) translate(-67.500000, -33.500000) translate(45.000000, 11.000000)">
                            <path d="M34.875,23.0625 C34.875,30.2075554 29.0825554,36 21.9375,36 C14.7924446,36 9,30.2075554 9,23.0625 C9,15.9174446 14.7924446,10.125 21.9375,10.125 C29.0825554,10.125 34.875,15.9174446 34.875,23.0625 Z" id="Path"></path>
                            <path d="M21.9375,45 C21.6268616,45 21.375,44.6473938 21.375,44.2125 L21.375,37.9125 C21.375,37.4776062 21.6268616,37.125 21.9375,37.125 C22.2481384,37.125 22.5,37.4776062 22.5,37.9125 L22.5,44.2125 C22.5,44.6473938 22.2481384,45 21.9375,45 Z" id="Path"></path>
                            <path d="M21.9375,7.875 C21.6268616,7.875 21.375,7.52239382 21.375,7.0875 L21.375,0.7875 C21.375,0.352606177 21.6268616,0 21.9375,0 C22.2481384,0 22.5,0.352606177 22.5,0.7875 L22.5,7.0875 C22.5,7.52239382 22.2481384,7.875 21.9375,7.875 Z" id="Path"></path>
                            <line x1="11.25" y1="11.25" x2="6.75" y2="6.75" id="Path"></line>
                            <path d="M11.6708573,12.375 C11.4841437,12.375 11.304995,12.3007282 11.1729545,12.1686894 L6.94765764,7.9434477 C6.68082575,7.66699145 6.68460818,7.22789369 6.95625401,6.95625132 C7.22789992,6.68460903 7.66700342,6.68082665 7.94346327,6.94765506 L12.1687601,11.1728967 C12.3699156,11.3743934 12.4304341,11.6773262 12.3214319,11.9403723 C12.2124298,12.2034183 11.9555697,12.375 11.6708573,12.375 Z" id="Path"></path>
                            <line x1="38.25" y1="38.25" x2="33.75" y2="33.75" id="Path"></line>
                            <path d="M38.6708573,39.375 C38.4841437,39.375 38.304995,39.3007282 38.1729545,39.1686894 L33.9476576,34.9434477 C33.6808257,34.6669915 33.6846082,34.2278937 33.956254,33.9562513 C34.2278999,33.684609 34.6670034,33.6808266 34.9434633,33.9476551 L39.1687601,38.1728967 C39.3699156,38.3743934 39.4304341,38.6773262 39.3214319,38.9403723 C39.2124298,39.2034183 38.9555697,39.375 38.6708573,39.375 L38.6708573,39.375 Z" id="Path"></path>
                            <line x1="33.75" y1="11.25" x2="38.25" y2="6.75" id="Path"></line>
                            <path d="M33.3291427,12.375 C33.0444303,12.375 32.7875702,12.2034183 32.6785681,11.9403723 C32.5695659,11.6773262 32.6300844,11.3743934 32.8312399,11.1728967 L37.0565367,6.94765506 C37.3329966,6.68082665 37.7721001,6.68460903 38.043746,6.95625132 C38.3153918,7.22789369 38.3191743,7.66699145 38.0523424,7.9434477 L33.8270455,12.1686894 C33.695005,12.3007282 33.5158563,12.375 33.3291427,12.375 L33.3291427,12.375 Z" id="Path"></path>
                            <path d="M44.2125,23.625 L37.9125,23.625 C37.4776062,23.625 37.125,23.3731384 37.125,23.0625 C37.125,22.7518616 37.4776062,22.5 37.9125,22.5 L44.2125,22.5 C44.6473938,22.5 45,22.7518616 45,23.0625 C45,23.3731384 44.6473938,23.625 44.2125,23.625 Z" id="Path"></path>
                            <path d="M7.0875,23.625 L0.7875,23.625 C0.352606177,23.625 0,23.3731384 0,23.0625 C0,22.7518616 0.352606177,22.5 0.7875,22.5 L7.0875,22.5 C7.52239382,22.5 7.875,22.7518616 7.875,23.0625 C7.875,23.3731384 7.52239382,23.625 7.0875,23.625 Z" id="Path"></path>
                            <line x1="6.75" y1="38.25" x2="11.25" y2="33.75" id="Path"></line>
                            <path d="M6.32914273,39.375 C6.04443034,39.375 5.78757024,39.2034183 5.67856806,38.9403723 C5.56956587,38.6773262 5.63008445,38.3743934 5.83123991,38.1728967 L10.0565367,33.9476551 C10.3329966,33.6808266 10.7721001,33.684609 11.043746,33.9562513 C11.3153918,34.2278937 11.3191743,34.6669915 11.0523424,34.9434477 L6.82704554,39.1686894 C6.69500502,39.3007282 6.51585631,39.375 6.32914273,39.375 Z" id="Path"></path>
                        </g>
                    </g>
                </g>
            </g>
        </g>
    </g>
</svg>