<?xml version="1.0" encoding="UTF-8"?>
<svg width="40px" height="32px" viewBox="0 0 40 32" version="1.1" xmlns="http://www.w3.org/2000/svg" xmlns:xlink="http://www.w3.org/1999/xlink">
    <title>9531171C-06A6-4CBD-A30A-210E99610A93</title>
    <g id="Page-1" stroke="none" stroke-width="1" fill="none" fill-rule="evenodd">
        <g id="-Flights-search-result-2" transform="translate(-162.000000, -1046.000000)" fill-rule="nonzero">
            <g id="video" transform="translate(96.000000, 469.000000)">
                <g id="Group-17" transform="translate(13.000000, 523.000000)">
                    <g id="Group-36" transform="translate(4.000000, 35.000000)">
                        <g id="cloudy-copy" transform="translate(49.000000, 19.000000)">
                            <path d="M32.4111311,9.64577438 C31.906509,9.64577438 31.4028975,9.69564881 30.9083813,9.79506304 C30.5354731,7.94569165 29.3298374,6.3681192 27.6370964,5.5142285 C25.9446924,4.66033771 23.951469,4.62452181 22.2287473,5.41682267 C20.6697414,1.14971194 15.924677,-1.05346686 11.6303366,0.495653663 C7.33599618,2.04477419 5.11875833,6.76008554 6.67776425,11.0268616 C2.91600555,11.1450205 -0.0554704947,14.2389101 0.000785747646,17.9781549 C0.0573788323,21.7177346 3.12115562,24.7212477 6.88493554,24.7272727 L32.4111311,24.7272727 C36.6020543,24.7272727 40,21.3512076 40,17.1865236 C40,13.0218396 36.6020543,9.64577438 32.4111311,9.64577438 Z" id="Path" fill="#60A2D7"></path>
                            <path d="M32.4111311,16.9185016 C31.906509,16.9185016 31.4028975,16.9683761 30.9083813,17.0677903 C30.5354731,15.2184189 29.3298374,13.6408465 27.6370964,12.7869558 C25.9446924,11.933065 23.951469,11.8972491 22.2287473,12.6895499 C20.6697414,8.42243921 15.924677,6.21926041 11.6303366,7.76838094 C7.33599618,9.31750146 5.11875833,14.0328128 6.67776425,18.2995888 C2.91600555,18.4177477 -0.0554704947,21.5116374 0.000785747646,25.2508822 C0.0573788323,28.9904619 3.12115562,31.9939749 6.88493554,32 L32.4111311,32 C36.6020543,32 40,28.6239349 40,24.4592508 C40,20.2945669 36.6020543,16.9185016 32.4111311,16.9185016 Z" id="Path" fill="#A3D4F7"></path>
                        </g>
                    </g>
                </g>
            </g>
        </g>
    </g>
</svg>