<?xml version="1.0" encoding="UTF-8"?>
<svg width="50px" height="40px" viewBox="0 0 50 40" version="1.1" xmlns="http://www.w3.org/2000/svg" xmlns:xlink="http://www.w3.org/1999/xlink">
    <title>5DB3EE54-751B-4390-A00F-BD5AF80BBEBE</title>
    <g id="Page-1" stroke="none" stroke-width="1" fill="none" fill-rule="evenodd">
        <g id="-Flights-search-result-2" transform="translate(-308.000000, -1042.000000)" fill-rule="nonzero">
            <g id="video" transform="translate(96.000000, 469.000000)">
                <g id="Group-17" transform="translate(13.000000, 523.000000)">
                    <g id="Group-37" transform="translate(156.000000, 40.000000)">
                        <g id="sunrise-copy" transform="translate(43.000000, 10.000000)">
                            <path d="M39.0909091,26.3636364 L39.0909091,25.5050505 C39.0909091,17.4440696 32.7820542,10.9090909 25,10.9090909 C17.2179458,10.9090909 10.9090909,17.4440696 10.9090909,25.5050505 L10.9090909,26.3636364 L39.0909091,26.3636364 Z" id="Path" fill="#FDD020"></path>
                            <path d="M40,26.3636364 L10,26.3636364 L10,24.7272727 C10,16.5937944 16.7159017,10 25,10 C33.2840983,10 40,16.5937944 40,24.7272727 L40,26.3636364 Z M11.6666667,24.7272727 L38.3333333,24.7272727 C38.3333333,17.4974698 32.3636881,11.6363636 25,11.6363636 C17.6363119,11.6363636 11.6666667,17.4974698 11.6666667,24.7272727 Z" id="Shape" fill="#FDD020"></path>
                            <path d="M37.3579545,33.6363636 L12.6420455,33.6363636 C12.18707,33.6363636 11.8181818,33.2293147 11.8181818,32.7272727 C11.8181818,32.2252308 12.18707,31.8181818 12.6420455,31.8181818 L37.3579545,31.8181818 C37.81293,31.8181818 38.1818182,32.2252308 38.1818182,32.7272727 C38.1818182,33.2293147 37.81293,33.6363636 37.3579545,33.6363636 Z" id="Path" fill="#FCE666"></path>
                            <path d="M39.1666667,30 L10.8333333,30 C10.3731282,30 10,29.592951 10,29.0909091 C10,28.5888672 10.3731282,28.1818182 10.8333333,28.1818182 L39.1666667,28.1818182 C39.6268718,28.1818182 40,28.5888672 40,29.0909091 C40,29.592951 39.6268718,30 39.1666667,30 Z" id="Path" fill="#FCE666"></path>
                            <path d="M31.8686869,40 L18.1313131,40 C17.6571624,40 17.2727273,39.592951 17.2727273,39.0909091 C17.2727273,38.5888672 17.6571624,38.1818182 18.1313131,38.1818182 L31.8686869,38.1818182 C32.3428376,38.1818182 32.7272727,38.5888672 32.7272727,39.0909091 C32.7272727,39.592951 32.3428376,40 31.8686869,40 Z" id="Path" fill="#FCE666"></path>
                            <path d="M35.5218855,36.3636364 L14.4781145,36.3636364 C14.0132608,36.3636364 13.6363636,35.9565874 13.6363636,35.4545455 C13.6363636,34.9525035 14.0132608,34.5454545 14.4781145,34.5454545 L35.5218855,34.5454545 C35.9867392,34.5454545 36.3636364,34.9525035 36.3636364,35.4545455 C36.3636364,35.9565874 35.9867392,36.3636364 35.5218855,36.3636364 Z" id="Path" fill="#FCE666"></path>
                            <path d="M27.9516521,20.7856122 L24.6715021,17.5132044 C24.517745,17.3594109 24.3087316,17.2727273 24.0909091,17.2727273 C23.8730867,17.2727273 23.6640732,17.3594109 23.5103161,17.5132044 L20.2301661,20.7856122 C19.9194488,21.1067811 19.9238533,21.6168964 20.2401763,21.9324729 C20.5564994,22.2480492 21.0678216,22.2524434 21.3897504,21.9424594 L23.2716724,20.0665773 L23.2716724,24.6364435 C23.2716724,25.0882371 23.6388474,25.4545455 24.0917099,25.4545455 C24.5445724,25.4545455 24.9117474,25.0882371 24.9117474,24.6364435 L24.9117474,20.0665773 L26.7920678,21.9424594 C27.1139966,22.2524434 27.6253188,22.2480492 27.9416419,21.9324729 C28.2579649,21.6168964 28.2623694,21.1067811 27.9516521,20.7856122 L27.9516521,20.7856122 Z" id="Path" fill="#F69C7F"></path>
                            <g id="Group" fill="#FDD020">
                                <path d="M25,8.23863636 C24.5397949,8.23863636 24.1666667,7.86974823 24.1666667,7.41477273 L24.1666667,0.823863636 C24.1666667,0.368888136 24.5397949,0 25,0 C25.4602051,0 25.8333333,0.368888136 25.8333333,0.823863636 L25.8333333,7.41477273 C25.8333333,7.86974823 25.4602051,8.23863636 25,8.23863636 Z" id="Path"></path>
                                <path d="M12.5,13.1818182 C12.2790527,13.1818182 12.0670573,13.0949263 11.9108073,12.9404519 L6.91080729,7.99727006 C6.59505208,7.67383922 6.59952802,7.16013131 6.92097979,6.84233229 C7.24243167,6.52453338 7.76204427,6.52010831 8.08919271,6.83227539 L13.0891927,11.7754572 C13.3272298,12.0111916 13.3988444,12.3655978 13.2698568,12.6733398 C13.1408692,12.9810819 12.8369141,13.1818182 12.5,13.1818182 Z" id="Path"></path>
                                <path d="M37.5,13.1818182 C37.1630859,13.1818182 36.8591308,12.9810819 36.7301432,12.6733398 C36.6011556,12.3655978 36.6727702,12.0111916 36.9108073,11.7754572 L41.9108073,6.83227539 C42.2379557,6.52010831 42.7575683,6.52453338 43.0790202,6.84233229 C43.400472,7.16013131 43.4049479,7.67383922 43.0891927,7.99727006 L38.0891927,12.9404519 C37.9329427,13.0949263 37.7209473,13.1818182 37.5,13.1818182 L37.5,13.1818182 Z" id="Path"></path>
                                <path d="M49.1666667,26.3636364 L42.5,26.3636364 C42.0397949,26.3636364 41.6666667,25.9947482 41.6666667,25.5397727 C41.6666667,25.0847972 42.0397949,24.7159091 42.5,24.7159091 L49.1666667,24.7159091 C49.6268718,24.7159091 50,25.0847972 50,25.5397727 C50,25.9947482 49.6268718,26.3636364 49.1666667,26.3636364 Z" id="Path"></path>
                                <path d="M7.5,26.3636364 L0.833333333,26.3636364 C0.373128229,26.3636364 0,25.9947482 0,25.5397727 C0,25.0847972 0.373128229,24.7159091 0.833333333,24.7159091 L7.5,24.7159091 C7.9602051,24.7159091 8.33333333,25.0847972 8.33333333,25.5397727 C8.33333333,25.9947482 7.9602051,26.3636364 7.5,26.3636364 Z" id="Path"></path>
                            </g>
                        </g>
                    </g>
                </g>
            </g>
        </g>
    </g>
</svg>